<svg xmlns="http://www.w3.org/2000/svg" height="24" viewBox="0 0 24 24" width="24" focusable="false" aria-hidden="true" style="pointer-events: none; display: inherit; width: 100%; height: 100%;"><path d="M12 1a7 7 0 00-6.213 3.774l1.719 1.032A5 5 0 0117 8v3.502l2 1.199V8a7 7 0 00-7-7ZM1.141 5.485a1 1 0 00.343 1.372l3.514 2.109v3.48a1 1 0 01-.143.514L3.05 15.97c-.8 1.334.16 3.03 1.716 3.03H8a4 4 0 108 0l6-.001a1 1 0 00.515-1.856l-20-12a1 1 0 00-1.373.342ZM7 12.446v-2.28L18.39 17H4.766l1.806-3.011A3 3 0 007 12.446ZM10 19h4a2 2 0 01-4 0Z"></path></svg>