<svg xmlns="http://www.w3.org/2000/svg" height="24" viewBox="0 0 24 24" width="24" focusable="false" aria-hidden="true" style="pointer-events: none; display: inherit; width: 100%; height: 100%;"><path d="m6.666 5.303 2.122 1.272c4.486-1.548 10.002.26 12.08 5.426-.2.5-.435.968-.696 1.406l1.717 1.03c.41-.69.752-1.42 1.02-2.178a.77.77 0 000-.516l-.18-.473C19.998 4.436 12.294 2.448 6.667 5.303Zm-5.524.183a1.003 1.003 0 00.343 1.371l1.8 1.08a11.8 11.8 0 00-2.193 3.805.77.77 0 000 .516c2.853 8.041 12.37 9.784 18.12 5.235l2.273 1.364a1 1 0 101.03-1.714l-20-12a1 1 0 00-1.373.343Zm11.064 2.52L12 8c-.248 0-.49.022-.727.066l4.54 2.724a4 4 0 00-3.607-2.785ZM5.04 8.99l3.124 1.874C8.057 11.224 8 11.606 8 12l.005.206a4 4 0 003.79 3.79L12 16c1.05 0 2.057-.414 2.803-1.152l2.54 1.524C12.655 19.48 5.556 18.024 3.133 12A9.6 9.6 0 015.04 8.99ZM10 12v-.033l2.967 1.78a1.99 1.99 0 01-2.307-.262 2 2 0 01-.65-1.28L10 12Z"></path></svg>